<svg width="14" height="14" viewBox="0 0 14 14" fill="none" xmlns="http://www.w3.org/2000/svg">
<path d="M10.334 3.00016H13.6673V4.3335H12.334V13.0002C12.334 13.177 12.2637 13.3465 12.1387 13.4716C12.0137 13.5966 11.8441 13.6668 11.6673 13.6668H2.33398C2.15717 13.6668 1.9876 13.5966 1.86258 13.4716C1.73756 13.3465 1.66732 13.177 1.66732 13.0002V4.3335H0.333984V3.00016H3.66732V1.00016C3.66732 0.823352 3.73756 0.653782 3.86258 0.528758C3.9876 0.403734 4.15717 0.333496 4.33398 0.333496H9.66732C9.84413 0.333496 10.0137 0.403734 10.1387 0.528758C10.2637 0.653782 10.334 0.823352 10.334 1.00016V3.00016ZM11.0007 4.3335H3.00065V12.3335H11.0007V4.3335ZM5.00065 6.3335H6.33398V10.3335H5.00065V6.3335ZM7.66732 6.3335H9.00065V10.3335H7.66732V6.3335ZM5.00065 1.66683V3.00016H9.00065V1.66683H5.00065Z" fill="#999999"/>
</svg>
